<svg width="120" height="120" viewBox="0 0 120 120" fill="none" xmlns="http://www.w3.org/2000/svg">
<g clip-path="url(#clip0_1_5295)">
<rect width="120" height="120" fill="#1A1B22"/>
<path fill-rule="evenodd" clip-rule="evenodd" d="M114.914 100.374L66.2201 128.188C56.5442 133.651 49.1301 129.926 49.1301 118.565V106.893L39.2657 112.543C29.5898 118.068 22.2386 114.343 22.2386 102.982V93.1727L13.7565 98.0152C4.08052 103.541 -3.3335 99.8157 -3.3335 88.4543V32.8274C-3.3335 25.5636 -1.13442 21.7765 5.21148 18.1756L54.8477 -10.1966C61.9476 -14.2321 70.8067 -11.5625 70.8067 -1.50493V9.7943L80.357 4.33094C87.4569 0.295501 96.3788 3.02718 96.3788 13.0847V26.1844L107.311 19.976C114.411 15.9406 123.333 18.6102 123.333 28.6677V85.8468C123.333 92.9864 121.511 96.5873 114.914 100.374Z" fill="#3772E7"/>
<path fill-rule="evenodd" clip-rule="evenodd" d="M45.2996 34.6667V41.5732H76.3787V34.6667H45.2996ZM36.6665 45.0265H43.573V84.7387H36.6665V45.0265ZM78.1054 45.0265H85.0118V84.5829H78.1054V45.0265Z" fill="white"/>
</g>
<defs>
<clipPath id="clip0_1_5295">
<rect width="120" height="120" fill="white"/>
</clipPath>
</defs>
</svg>
