<svg width="180" height="180" viewBox="0 0 180 180" fill="none" xmlns="http://www.w3.org/2000/svg">
<g clip-path="url(#clip0_1_5290)">
<rect width="180" height="180" fill="#1A1B22"/>
<path fill-rule="evenodd" clip-rule="evenodd" d="M172.371 150.562L99.3304 192.282C84.8165 200.477 73.6954 194.889 73.6954 177.847V160.34L58.8988 168.814C44.3849 177.102 33.3581 171.515 33.3581 154.473V139.759L20.6349 147.023C6.12103 155.311 -5 149.723 -5 132.681V49.241C-5 38.3453 -1.70139 32.6647 7.81746 27.2634L82.2718 -15.295C92.9216 -21.3481 106.21 -17.3437 106.21 -2.25739V14.6915L120.536 6.49641C131.186 0.443249 144.568 4.54077 144.568 19.6271V39.2766L160.967 29.964C171.617 23.9109 185 27.9153 185 43.0016V128.77C185 139.48 182.267 144.881 172.371 150.562Z" fill="#3772E7"/>
<path fill-rule="evenodd" clip-rule="evenodd" d="M67.9496 52V62.3597H114.568V52H67.9496ZM55 67.5396H65.3597V127.108H55V67.5396ZM117.158 67.5396H127.518V126.874H117.158V67.5396Z" fill="white"/>
</g>
<defs>
<clipPath id="clip0_1_5290">
<rect width="180" height="180" fill="white"/>
</clipPath>
</defs>
</svg>
